<svg width="282" height="57" viewBox="0 0 282 57" fill="none" xmlns="http://www.w3.org/2000/svg">
<rect width="282" height="57" rx="28.5" fill="white"/>
<path d="M63.2598 25.7773V30.0312H52.7656V25.7773H63.2598ZM54.2246 15.4062V41H49.0742V15.4062H54.2246ZM66.9863 15.4062V41H61.8887V15.4062H66.9863ZM79.3262 36.623V27.834C79.3262 27.2598 79.2559 26.8027 79.1152 26.4629C78.9863 26.123 78.7871 25.877 78.5176 25.7246C78.2598 25.5605 77.9434 25.4785 77.5684 25.4785C77.1465 25.4785 76.7949 25.5664 76.5137 25.7422C76.2324 25.918 76.0215 26.1699 75.8809 26.498C75.752 26.8262 75.6875 27.2188 75.6875 27.6758H70.748C70.748 26.8555 70.9062 26.082 71.2227 25.3555C71.5391 24.6172 72.002 23.9727 72.6113 23.4219C73.2324 22.8594 73.9707 22.4199 74.8262 22.1035C75.6816 21.7871 76.6426 21.6289 77.709 21.6289C78.9746 21.6289 80.0996 21.8457 81.084 22.2793C82.0684 22.7012 82.8477 23.375 83.4219 24.3008C83.9961 25.2266 84.2832 26.4277 84.2832 27.9043V36.377C84.2832 37.4434 84.3359 38.3105 84.4414 38.9785C84.5586 39.6465 84.7285 40.2207 84.9512 40.7012V41H79.9941C79.7715 40.4727 79.6016 39.8164 79.4844 39.0312C79.3789 38.2344 79.3262 37.4316 79.3262 36.623ZM79.9238 29.3809L79.9414 32.334H78.1309C77.6621 32.334 77.252 32.4102 76.9004 32.5625C76.5605 32.7148 76.2734 32.9316 76.0391 33.2129C75.8047 33.4824 75.6289 33.7988 75.5117 34.1621C75.4062 34.5254 75.3535 34.9121 75.3535 35.3223C75.3535 35.7793 75.418 36.166 75.5469 36.4824C75.6758 36.7988 75.8691 37.0391 76.127 37.2031C76.3848 37.3672 76.6895 37.4492 77.041 37.4492C77.5801 37.4492 78.0488 37.3379 78.4473 37.1152C78.8457 36.8926 79.1387 36.623 79.3262 36.3066C79.5254 35.9902 79.5898 35.6973 79.5195 35.4277L80.6445 37.3438C80.5039 37.7773 80.3105 38.2285 80.0645 38.6973C79.8301 39.166 79.5312 39.5996 79.168 39.998C78.8047 40.3965 78.3535 40.7246 77.8145 40.9824C77.2871 41.2285 76.6602 41.3516 75.9336 41.3516C74.9141 41.3516 73.9824 41.1172 73.1387 40.6484C72.2949 40.1797 71.627 39.5234 71.1348 38.6797C70.6543 37.8359 70.4141 36.834 70.4141 35.6738C70.4141 34.7129 70.5664 33.8457 70.8711 33.0723C71.1875 32.2871 71.6562 31.625 72.2773 31.0859C72.8984 30.5352 73.6836 30.1133 74.6328 29.8203C75.582 29.5273 76.6953 29.3809 77.9727 29.3809H79.9238ZM100.93 36.9043V41H88.8535V36.9043H100.93ZM100.807 24.9688L90.7871 41H87.5V37.9062L97.4668 21.9805H100.807V24.9688ZM99.084 21.9805V26.0762H87.6934V21.9805H99.084ZM120.793 21.9805V25.6895H111.09V21.9805H120.793ZM113.322 17.2871H118.227V35.1992C118.227 35.7266 118.279 36.1309 118.385 36.4121C118.49 36.6934 118.648 36.8926 118.859 37.0098C119.082 37.1152 119.375 37.168 119.738 37.168C119.984 37.168 120.213 37.1562 120.424 37.1328C120.635 37.0977 120.793 37.0625 120.898 37.0273V40.877C120.512 41.0293 120.102 41.1465 119.668 41.2285C119.246 41.3105 118.742 41.3516 118.156 41.3516C117.172 41.3516 116.316 41.1641 115.59 40.7891C114.875 40.4141 114.318 39.8164 113.92 38.9961C113.521 38.1641 113.322 37.0742 113.322 35.7266V17.2871ZM132.729 36.4297V21.9805H137.668V41H133.027L132.729 36.4297ZM133.291 32.5098L134.662 32.4746C134.662 33.752 134.539 34.9355 134.293 36.0254C134.047 37.1035 133.678 38.041 133.186 38.8379C132.693 39.6348 132.078 40.2559 131.34 40.7012C130.602 41.1348 129.729 41.3516 128.721 41.3516C127.947 41.3516 127.232 41.2227 126.576 40.9648C125.932 40.6953 125.375 40.2793 124.906 39.7168C124.438 39.1426 124.068 38.4102 123.799 37.5195C123.541 36.6172 123.412 35.5332 123.412 34.2676V21.9805H128.352V34.3203C128.352 34.8359 128.398 35.2812 128.492 35.6562C128.586 36.0195 128.715 36.3184 128.879 36.5527C129.043 36.7871 129.236 36.957 129.459 37.0625C129.682 37.1562 129.934 37.2031 130.215 37.2031C130.988 37.2031 131.598 37.0039 132.043 36.6055C132.5 36.1953 132.822 35.6387 133.01 34.9355C133.197 34.2207 133.291 33.4121 133.291 32.5098ZM157.936 36.623V27.834C157.936 27.2598 157.865 26.8027 157.725 26.4629C157.596 26.123 157.396 25.877 157.127 25.7246C156.869 25.5605 156.553 25.4785 156.178 25.4785C155.756 25.4785 155.404 25.5664 155.123 25.7422C154.842 25.918 154.631 26.1699 154.49 26.498C154.361 26.8262 154.297 27.2188 154.297 27.6758H149.357C149.357 26.8555 149.516 26.082 149.832 25.3555C150.148 24.6172 150.611 23.9727 151.221 23.4219C151.842 22.8594 152.58 22.4199 153.436 22.1035C154.291 21.7871 155.252 21.6289 156.318 21.6289C157.584 21.6289 158.709 21.8457 159.693 22.2793C160.678 22.7012 161.457 23.375 162.031 24.3008C162.605 25.2266 162.893 26.4277 162.893 27.9043V36.377C162.893 37.4434 162.945 38.3105 163.051 38.9785C163.168 39.6465 163.338 40.2207 163.561 40.7012V41H158.604C158.381 40.4727 158.211 39.8164 158.094 39.0312C157.988 38.2344 157.936 37.4316 157.936 36.623ZM158.533 29.3809L158.551 32.334H156.74C156.271 32.334 155.861 32.4102 155.51 32.5625C155.17 32.7148 154.883 32.9316 154.648 33.2129C154.414 33.4824 154.238 33.7988 154.121 34.1621C154.016 34.5254 153.963 34.9121 153.963 35.3223C153.963 35.7793 154.027 36.166 154.156 36.4824C154.285 36.7988 154.479 37.0391 154.736 37.2031C154.994 37.3672 155.299 37.4492 155.65 37.4492C156.189 37.4492 156.658 37.3379 157.057 37.1152C157.455 36.8926 157.748 36.623 157.936 36.3066C158.135 35.9902 158.199 35.6973 158.129 35.4277L159.254 37.3438C159.113 37.7773 158.92 38.2285 158.674 38.6973C158.439 39.166 158.141 39.5996 157.777 39.998C157.414 40.3965 156.963 40.7246 156.424 40.9824C155.896 41.2285 155.27 41.3516 154.543 41.3516C153.523 41.3516 152.592 41.1172 151.748 40.6484C150.904 40.1797 150.236 39.5234 149.744 38.6797C149.264 37.8359 149.023 36.834 149.023 35.6738C149.023 34.7129 149.176 33.8457 149.48 33.0723C149.797 32.2871 150.266 31.625 150.887 31.0859C151.508 30.5352 152.293 30.1133 153.242 29.8203C154.191 29.5273 155.305 29.3809 156.582 29.3809H158.533ZM171.453 25.6367V48.3125H166.549V21.9805H171.084L171.453 25.6367ZM181.332 30.8398V32.1055C181.332 33.5938 181.203 34.9121 180.945 36.0605C180.688 37.1973 180.301 38.1641 179.785 38.9609C179.281 39.7461 178.648 40.3438 177.887 40.7539C177.125 41.1523 176.234 41.3516 175.215 41.3516C174.266 41.3516 173.445 41.1289 172.754 40.6836C172.074 40.2266 171.5 39.5996 171.031 38.8027C170.562 38.0059 170.188 37.0742 169.906 36.0078C169.625 34.9414 169.408 33.7988 169.256 32.5801V30.6113C169.396 29.3105 169.602 28.1152 169.871 27.0254C170.141 25.9238 170.51 24.9688 170.979 24.1602C171.459 23.3516 172.039 22.7305 172.719 22.2969C173.41 21.8516 174.23 21.6289 175.18 21.6289C176.211 21.6289 177.107 21.8164 177.869 22.1914C178.643 22.5664 179.281 23.1348 179.785 23.8965C180.301 24.6465 180.688 25.6016 180.945 26.7617C181.203 27.9219 181.332 29.2812 181.332 30.8398ZM176.41 32.1055V30.8398C176.41 29.9258 176.357 29.1465 176.252 28.502C176.158 27.8574 176.006 27.3301 175.795 26.9199C175.584 26.5098 175.309 26.2109 174.969 26.0234C174.629 25.8359 174.213 25.7422 173.721 25.7422C173.24 25.7422 172.818 25.8359 172.455 26.0234C172.104 26.2109 171.816 26.4863 171.594 26.8496C171.371 27.2012 171.201 27.6348 171.084 28.1504C170.967 28.6543 170.902 29.2285 170.891 29.873V33.3184C170.914 34.0801 171.014 34.7539 171.189 35.3398C171.377 35.9258 171.676 36.3945 172.086 36.7461C172.496 37.0859 173.053 37.2559 173.756 37.2559C174.26 37.2559 174.676 37.1504 175.004 36.9395C175.344 36.7285 175.619 36.4121 175.83 35.9902C176.041 35.5684 176.188 35.0352 176.27 34.3906C176.363 33.7461 176.41 32.9844 176.41 32.1055ZM183.793 32.1406V30.8574C183.793 29.3691 183.969 28.0508 184.32 26.9023C184.684 25.7539 185.199 24.793 185.867 24.0195C186.535 23.2344 187.338 22.6426 188.275 22.2441C189.225 21.834 190.285 21.6289 191.457 21.6289C192.641 21.6289 193.701 21.834 194.639 22.2441C195.588 22.6426 196.396 23.2344 197.064 24.0195C197.744 24.793 198.266 25.7539 198.629 26.9023C198.992 28.0508 199.174 29.3691 199.174 30.8574V32.1406C199.174 33.6172 198.992 34.9297 198.629 36.0781C198.266 37.2266 197.744 38.1934 197.064 38.9785C196.396 39.7637 195.594 40.3555 194.656 40.7539C193.719 41.1523 192.664 41.3516 191.492 41.3516C190.32 41.3516 189.26 41.1523 188.311 40.7539C187.373 40.3555 186.564 39.7637 185.885 38.9785C185.205 38.1934 184.684 37.2266 184.32 36.0781C183.969 34.9297 183.793 33.6172 183.793 32.1406ZM188.715 30.8574V32.1406C188.715 33.0195 188.773 33.7812 188.891 34.4258C189.02 35.0703 189.201 35.6035 189.436 36.0254C189.682 36.4473 189.975 36.7578 190.314 36.957C190.654 37.1562 191.047 37.2559 191.492 37.2559C191.938 37.2559 192.336 37.1562 192.688 36.957C193.039 36.7578 193.326 36.4473 193.549 36.0254C193.783 35.6035 193.953 35.0703 194.059 34.4258C194.176 33.7812 194.234 33.0195 194.234 32.1406V30.8574C194.234 30.002 194.17 29.252 194.041 28.6074C193.912 27.9512 193.73 27.418 193.496 27.0078C193.262 26.5859 192.969 26.2695 192.617 26.0586C192.277 25.8359 191.891 25.7246 191.457 25.7246C191.023 25.7246 190.637 25.8359 190.297 26.0586C189.969 26.2695 189.682 26.5859 189.436 27.0078C189.201 27.418 189.02 27.9512 188.891 28.6074C188.773 29.252 188.715 30.002 188.715 30.8574ZM207.207 26.2168V41H202.285V21.9805H206.926L207.207 26.2168ZM211.689 21.8398L211.619 26.7441C211.396 26.6973 211.127 26.6621 210.811 26.6387C210.506 26.6152 210.236 26.6035 210.002 26.6035C209.451 26.6035 208.982 26.6914 208.596 26.8672C208.209 27.0312 207.887 27.2832 207.629 27.623C207.383 27.9512 207.195 28.3613 207.066 28.8535C206.938 29.3457 206.861 29.9023 206.838 30.5234L205.906 30.1719C205.906 28.9297 206 27.793 206.188 26.7617C206.387 25.7188 206.68 24.8164 207.066 24.0547C207.453 23.2812 207.916 22.6836 208.455 22.2617C209.006 21.8398 209.627 21.6289 210.318 21.6289C210.553 21.6289 210.799 21.6523 211.057 21.6992C211.326 21.7344 211.537 21.7812 211.689 21.8398ZM223.379 21.9805V25.6895H213.676V21.9805H223.379ZM215.908 17.2871H220.812V35.1992C220.812 35.7266 220.865 36.1309 220.971 36.4121C221.076 36.6934 221.234 36.8926 221.445 37.0098C221.668 37.1152 221.961 37.168 222.324 37.168C222.57 37.168 222.799 37.1562 223.01 37.1328C223.221 37.0977 223.379 37.0625 223.484 37.0273V40.877C223.098 41.0293 222.688 41.1465 222.254 41.2285C221.832 41.3105 221.328 41.3516 220.742 41.3516C219.758 41.3516 218.902 41.1641 218.176 40.7891C217.461 40.4141 216.904 39.8164 216.506 38.9961C216.107 38.1641 215.908 37.0742 215.908 35.7266V17.2871ZM233.785 41.3516C232.484 41.3516 231.33 41.1523 230.322 40.7539C229.326 40.3555 228.482 39.7812 227.791 39.0312C227.1 38.2695 226.572 37.3496 226.209 36.2715C225.846 35.1934 225.664 33.9629 225.664 32.5801V31.0156C225.664 29.4688 225.84 28.1152 226.191 26.9551C226.543 25.7832 227.041 24.7988 227.686 24.002C228.33 23.2051 229.121 22.6133 230.059 22.2266C231.008 21.8281 232.08 21.6289 233.275 21.6289C234.471 21.6289 235.52 21.8281 236.422 22.2266C237.336 22.6133 238.092 23.1992 238.689 23.9844C239.287 24.7578 239.738 25.7188 240.043 26.8672C240.348 28.0156 240.5 29.3516 240.5 30.875V33.125H227.756V29.6621H235.666V29.2227C235.666 28.4492 235.584 27.8047 235.42 27.2891C235.256 26.7617 234.998 26.3691 234.646 26.1113C234.295 25.8535 233.826 25.7246 233.24 25.7246C232.748 25.7246 232.332 25.8242 231.992 26.0234C231.652 26.2227 231.383 26.5332 231.184 26.9551C230.984 27.377 230.838 27.9277 230.744 28.6074C230.65 29.2754 230.604 30.0781 230.604 31.0156V32.5801C230.604 33.459 230.68 34.1973 230.832 34.7949C230.984 35.3809 231.207 35.8613 231.5 36.2363C231.805 36.5996 232.174 36.8633 232.607 37.0273C233.041 37.1797 233.545 37.2559 234.119 37.2559C234.986 37.2559 235.766 37.1035 236.457 36.7988C237.16 36.4824 237.758 36.0547 238.25 35.5156L240.219 38.5039C239.879 38.9492 239.41 39.3945 238.812 39.8398C238.215 40.2852 237.5 40.6484 236.668 40.9297C235.836 41.2109 234.875 41.3516 233.785 41.3516Z" fill="black"/>
</svg>
